# xmcd
#
# Track frame offsets: 
#        150
#        11526
#        24538
#        41816
#        55456
#        66882
#        80103
#        94607
#        107351
#        121379
#        135081
#        148978
#        159761
#        170527
#        183673
#        193770
#        207670
#        219674
#        232836
#        244167
#        254813
#        266726
#        287715
#        298278
#        313920
#        333562
#        344286
#
# Disc length: 4737 seconds
#
# Revision: 0
# Processed by: cddbd v1.5.2PL0 Copyright (c) Steve Scherf et al.
# Submitted via: ExactAudioCopy v1.0b1
#
DISCID=ab127f1b
DTITLE=Alexis Korner's Blues Incorporated - R&B From The Marquee
DYEAR=2013
DGENRE=Blues
TTITLE0=Gotta Move (mono)
TTITLE1=Rain Is Such A Lonesome Sound (mono)
TTITLE2=I Got My Brand On You (mono)
TTITLE3=Spooky But Nice (mono)
TTITLE4=Keep Your Hands Off (mono)
TTITLE5=I Wanna Put A Tiger In Your Tank (mono)
TTITLE6=I Got My Mojo Working (mono)
TTITLE7=Finkle's Cafe (mono)
TTITLE8=Hoochie Coochie (mono)
TTITLE9=Down Town (mono)
TTITLE10=How Long, How Long Blues (mono)
TTITLE11=I Thought I Heard That Lonesome Whistle Blow (mono)
TTITLE12=I'm Built For Comfort (mono)
TTITLE13=Sail On (mono)
TTITLE14=National Defence Blues (mono)
TTITLE15=Go Down Sunshine (mono)
TTITLE16=Death Letter (mono)
TTITLE17=K.C. Moan (mono)
TTITLE18=Hesitation Blues (mono)
TTITLE19=It's The Same Old Thing (mono)
TTITLE20=Short Legs Shuffle (mono)
TTITLE21=3-4 A.D. (mono)
TTITLE22=She Folled Me (mono)
TTITLE23=I'm A Hoochie Coochie Man (mono)
TTITLE24=Night Time Is The Right Time (mono)
TTITLE25=Everything She Needs (mono)
TTITLE26=Up-Town (mono)
EXTD=
EXTT0=
EXTT1=
EXTT2=
EXTT3=
EXTT4=
EXTT5=
EXTT6=
EXTT7=
EXTT8=
EXTT9=
EXTT10=
EXTT11=
EXTT12=
EXTT13=
EXTT14=
EXTT15=
EXTT16=
EXTT17=
EXTT18=
EXTT19=
EXTT20=
EXTT21=
EXTT22=
EXTT23=
EXTT24=
EXTT25=
EXTT26=
PLAYORDER=
